<svg xmlns="http://www.w3.org/2000/svg" display="none">
    <symbol id="icon-basket" viewBox="0 0 34 34">
        <path d="M32.2 13H26c0-.1 0-.2-.1-.3l-6-10.4c-.3-.5-.9-.6-1.4-.4-.5.3-.6.9-.4 1.4l5.6 9.7H10.3l5.6-9.7c.3-.5.1-1.1-.4-1.4-.5-.3-1.1-.1-1.4.4l-6 10.4c-.1.1-.1.2-.1.3H1.8c-1 0-1.8.5-1.8 1.5 0 .9.7 1.5 1.8 1.5l2 13c.2 1 1 2 2 2H28c1 0 1.8-1 2-2l2-13c1 0 1.8-.6 1.8-1.5.2-.9-.6-1.5-1.6-1.5zm-4 15.3c-.1.4-.4.7-.8.7H6.5c-.3 0-.7-.3-.8-.7L3.7 15h26.6l-2.1 13.3z"></path>
    </symbol>

    <symbol id="icon-phone" viewBox="0 0 64 64">
        <path d="M32 0C14.328 0 0 14.328 0 32s14.328 32 32 32 32-14.328 32-32S49.672 0 32 0zm15.555 44.121c-.719.684-1.344 1.441-2.063 1.965-1.742 1.246-3.914 1.914-6.438 1.945-2.48.031-4.488-.727-6.32-1.602-3.578-1.711-6.453-4.219-9.188-7.023-2.688-2.766-5.199-6.07-6.672-9.773-1.836-4.625-1.184-9.492 1.328-12.617.422-.531 1.105-1.098 1.727-1.672.625-.586 1.188-1.273 2.086-1.484 2.043-.48 3.492 1.781 4.59 3.344 1.066 1.508 2.375 3.281 1.965 5.328-.223 1.141-1.223 1.805-1.969 2.512-.738.691-1.879 1.355-2.117 2.379-.391 1.672.695 3.359 1.367 4.316 1.516 2.164 3.324 4.098 5.598 5.793 1.098.824 2.625 1.922 4.09 1.559 2.188-.543 2.656-3.293 5.043-3.762 2.273-.445 3.895 1.148 5.234 2.203 1.293 1.023 3.363 2.313 3.305 4.16-.035 1.062-.855 1.757-1.566 2.429z"></path>
    </symbol>

    <symbol id="icon-search" viewBox="0 0 16.9 16.9">
        <path d="M16.7 15.3l-4.4-4.4c-.2-.2-.5-.2-.7 0l-.7.7c-.2.2-.2.5 0 .7l4.4 4.4c.2.2.8.4 1.1 0l.3-.3c.4-.3.2-.9 0-1.1zM13 6.5C13 2.9 10.1 0 6.5 0S0 2.9 0 6.5 2.9 13 6.5 13 13 10.1 13 6.5zM6.5 11C4 11 2 9 2 6.5S4 2 6.5 2 11 4 11 6.5 9 11 6.5 11z"></path>
    </symbol>

    <symbol id="icon-vk" viewBox="0 0 18 18">
        <path d="M15.5 0h-13C1.1 0 0 1.1 0 2.5v13C0 16.9 1.1 18 2.5 18h13c1.4 0 2.5-1.1 2.5-2.5v-13C18 1.1 16.9 0 15.5 0zm-.9 13h-1.7s-.4.1-.8-.2c-.6-.4-1.2-1.5-1.7-1.4-.4.1-.4 1.1-.4 1.1s0 .2-.1.3c-.1.2-.4.2-.4.2h-.7s-1.6.1-3.1-1.4c-1.6-1.6-3-4.9-3-4.9s-.1-.2 0-.3c.1-.1.4-.1.4-.1h1.8s.2 0 .3.1l.2.2s.2.7.6 1.3c.7 1.3 1.1 1.6 1.3 1.4.4-.2.3-1.8.3-1.8s0-.6-.2-.8c-.2-.2-.4-.3-.6-.3-.1 0 .1-.2.3-.4.3-.1.9-.1 1.6-.1.5 0 .7 0 .9.1.6.2.4.7.4 2.1 0 .4-.1 1.1.2 1.3.1.1.5 0 1.3-1.4.4-.7.7-1.5.7-1.5s.1-.2.2-.2c.1-.1.2 0 .2 0h1.9s.6 0 .7.2c.1.3-.2.9-1 1.9-1.3 1.7-1.4 1.5-.4 2.5 1 .9 1.2 1.4 1.2 1.4.5.6-.4.7-.4.7z"
              fill-rule="evenodd" clip-rule="evenodd"></path>
    </symbol>

    <symbol id="icon-fb" viewBox="0 0 18 18">
        <path d="M15.5 0h-13C1.1 0 0 1.1 0 2.5v13C0 16.9 1.1 18 2.5 18h13c1.4 0 2.5-1.1 2.5-2.5v-13C18 1.1 16.9 0 15.5 0zM15 8.3v2.2h-3V18H9.8v-7.5H8.3V8.3h1.5V5.8c0-1.6.8-2.8 2.7-2.8H15v2.2h-2.3c-.6 0-.7.3-.7.6v2.4h3z"></path>
    </symbol>

    <symbol id="icon-tw" viewBox="0 0 64 64">
        <path d="M64 12.664a26.747 26.747 0 0 1-7.542 2.014c2.714-1.582 4.795-4.09 5.773-7.076m0 0a26.708 26.708 0 0 1-8.336 3.104c-2.396-2.484-5.81-4.039-9.586-4.039-7.25 0-13.13 5.727-13.13 12.793 0 1 .117 1.977.341 2.914-10.911-.536-20.587-5.626-27.064-13.366a12.47 12.47 0 0 0-1.776 6.43c0 4.439 2.315 8.354 5.839 10.648a13.358 13.358 0 0 1-5.945-1.602v.162c0 6.197 4.523 11.367 10.531 12.541a13.547 13.547 0 0 1-5.93.218c1.672 5.08 6.521 8.779 12.263 8.883-4.492 3.43-10.151 5.477-16.305 5.477A27.22 27.22 0 0 1 0 51.585a37.879 37.879 0 0 0 20.128 5.748c24.153 0 37.359-19.492 37.359-36.395 0-.555-.014-1.105-.037-1.658A26.168 26.168 0 0 0 64 12.663"></path>
    </symbol>

    <symbol id="icon-ig" viewBox="0 0 18 18">
        <path d="M15.5 0h-13C1.1 0 0 1.1 0 2.5v13C0 16.9 1.1 18 2.5 18h13c1.4 0 2.5-1.1 2.5-2.5v-13C18 1.1 16.9 0 15.5 0zM9 14c-2.8 0-5-2.2-5-5s2.2-5 5-5 5 2.2 5 5-2.2 5-5 5zm5.6-9.3c-.7 0-1.2-.6-1.2-1.2 0-.7.6-1.3 1.2-1.3s1.2.6 1.2 1.3c0 .6-.5 1.2-1.2 1.2zM9 6C7.3 6 6 7.3 6 9s1.3 3 3 3 3-1.3 3-3-1.3-3-3-3z"
              fill-rule="evenodd" clip-rule="evenodd"></path>
    </symbol>

    <symbol id="icon-whatsapp" viewBox="-233 356.9 128 128">
        <path d="M-169 356.9c-35.3 0-64 28.7-64 64 0 14 4.5 27 12.2 37.5l-8 23.8 24.6-7.9c10.1 6.7 22.2 10.6 35.2 10.6 35.3 0 64-28.7 64-64s-28.7-64-64-64zm37.3 90.4c-1.5 4.4-7.7 8-12.6 9-3.3.7-7.7 1.3-22.4-4.8-18.8-7.8-30.9-26.9-31.9-28.1-.9-1.2-7.6-10.1-7.6-19.3 0-9.2 4.7-13.7 6.5-15.6 1.5-1.6 4.1-2.3 6.5-2.3.8 0 1.5 0 2.1.1 1.9.1 2.8.2 4.1 3.2 1.5 3.7 5.3 12.9 5.8 13.8.5.9.9 2.2.3 3.5-.6 1.3-1.1 1.8-2.1 2.9-.9 1.1-1.8 1.9-2.8 3.1-.9 1-1.8 2.1-.8 4 1.1 1.8 4.9 8 10.4 12.9 7.1 6.4 12.9 8.4 15 9.3 1.5.6 3.4.5 4.5-.7 1.4-1.5 3.2-4.1 5-6.6 1.3-1.8 2.9-2 4.6-1.4 1.7.6 10.9 5.1 12.8 6.1 1.9.9 3.1 1.4 3.6 2.2.5.6.5 4.3-1 8.7z"></path>
    </symbol>

    <symbol id="icon-telegram" viewBox="0 0 64 64">
        <path d="M41.7 21.3c-.3.1-.7.3-.9.5-6.4 4-12.7 8-19.1 12-.4.2-.4.4-.3.8.5 1.3.9 2.7 1.3 4.1l1.8 5.4h.1v-.2c.2-2 .4-3.9.5-5.9 0-.4.2-.8.5-1 2.6-2.3 5.2-4.7 7.8-7.1 2.9-2.6 5.8-5.2 8.6-7.8.2-.2.3-.4.4-.7-.2 0-.5-.1-.7-.1z"></path>
        <path d="M32 0C14.3 0 0 14.3 0 32s14.3 32 32 32 32-14.3 32-32S49.7 0 32 0zm17.5 17.4c-.1 1.1-.4 2.2-.6 3.3-1.8 8.7-3.7 17.4-5.5 26-.4 2.1-1.9 2.6-3.6 1.3-2.8-2.1-5.7-4.2-8.5-6.3-.1-.1-.3-.2-.4-.3-1.5 1.5-3.1 3-4.6 4.4-.5.5-1.1.8-1.9.8-.5 0-.8-.3-1-.7-1.2-3.6-2.3-7.2-3.5-10.7-.1-.3-.3-.5-.6-.6-2.7-.8-5.4-1.7-8.1-2.5-.4-.1-.8-.3-1.2-.6-.6-.4-.6-1-.1-1.4.5-.4 1-.8 1.6-1 3.3-1.3 6.7-2.6 10-3.9 8.5-3.3 16.9-6.5 25.4-9.8 1.5-.6 2.8.3 2.6 2z"></path>
    </symbol>

    <symbol id="icon-skype" viewBox="0 0 16 16">
        <path fill-rule="evenodd" clip-rule="evenodd"
              d="M15.717 8.084c0 .554-.062 1.094-.178 1.615.295.583.461 1.24.461 1.937C16 14.046 14.018 16 11.575 16c-.757 0-1.47-.188-2.093-.519a7.73 7.73 0 0 1-1.396.127c-4.216 0-7.632-3.369-7.632-7.524 0-.519.053-1.024.154-1.513A4.305 4.305 0 0 1 0 4.363C0 1.953 1.981 0 4.425 0c.866 0 1.673.246 2.355.67.424-.073.86-.11 1.305-.11 4.215 0 7.632 3.368 7.632 7.524zM4.649 4.368c.305-.44.75-.783 1.323-1.018.566-.232 1.239-.35 2.001-.349.609 0 1.144.078 1.592.232.45.155.828.365 1.126.622.3.26.524.538.664.825.141.291.213.581.213.862 0 .27-.094.515-.28.729a.892.892 0 0 1-.7.324c-.253 0-.45-.068-.587-.203-.127-.125-.26-.32-.408-.6-.17-.358-.375-.64-.612-.839-.23-.193-.612-.29-1.139-.29-.488 0-.886.108-1.182.323-.285.207-.423.442-.423.723a.71.71 0 0 0 .136.44c.097.131.234.247.407.343.18.099.365.179.549.236.19.058.508.143.944.255.553.132 1.06.278 1.508.438.454.16.847.359 1.168.59.325.235.585.538.768.899.185.362.277.81.277 1.33 0 .622-.16 1.189-.477 1.685-.315.495-.78.886-1.385 1.165-.6.275-1.316.414-2.132.414-.98 0-1.801-.19-2.443-.567a3.324 3.324 0 0 1-1.122-1.104c-.29-.462-.437-.922-.437-1.364 0-.277.096-.517.284-.713a.948.948 0 0 1 .712-.294.85.85 0 0 1 .6.232c.159.147.293.365.401.646.121.307.253.566.392.77.134.195.326.36.572.49.247.128.58.195.99.195.565 0 1.027-.134 1.374-.397.34-.257.506-.564.506-.942 0-.298-.087-.533-.263-.716a1.816 1.816 0 0 0-.729-.445c-.31-.108-.73-.223-1.25-.344-.71-.168-1.31-.367-1.789-.592-.49-.23-.883-.55-1.172-.95-.293-.404-.441-.914-.441-1.513 0-.57.156-1.085.464-1.528z"></path>
    </symbol>


    <symbol id="icon-email" viewBox="0 0 16 12">
        <path fill-rule="evenodd" clip-rule="evenodd"
              d="M0 10.5c0 .828.598 1.5 1.333 1.5h13.334c.735 0 1.333-.672 1.333-1.5v-9c0-.827-.598-1.5-1.333-1.5H1.333C.598 0 0 .673 0 1.5v9zm8-2.637L1.537 2.818c-.17-.134-.22-.409-.11-.615.111-.206.34-.265.51-.132L8 6.804l6.063-4.733c.17-.133.399-.074.51.132.11.206.06.481-.11.615L8 7.863zM1.369 10a.355.355 0 0 1-.307-.198c-.113-.204-.067-.48.102-.616L4.48 6.519c.17-.136.398-.081.51.123.114.205.068.48-.101.617L1.573 9.925A.326.326 0 0 1 1.37 10zm13.058-.075c.063.05.134.075.204.075.119 0 .236-.07.307-.198.113-.204.067-.48-.102-.616L11.52 6.519c-.17-.136-.398-.081-.51.123-.114.205-.068.48.101.617l3.316 2.666z"></path>
    </symbol>

    <symbol id="icon-location" viewBox="0 0 64 64">
        <path fill-rule="evenodd" clip-rule="evenodd"
              d="M56.381 24.381C56.381 10.914 45.468 0 32 0 18.536 0 7.619 10.914 7.619 24.381a24.276 24.276 0 0 0 5.355 15.238h-.022L32 64l19.048-24.381h-.021a24.277 24.277 0 0 0 5.354-15.238zM32 33.523a9.143 9.143 0 0 1-9.143-9.143A9.141 9.141 0 0 1 32 15.237a9.143 9.143 0 0 1 0 18.286z"></path>
    </symbol>

    <symbol id="user-icon" viewBox="0 0 350 350">
        <g>
            <path d="M175,171.173c38.914,0,70.463-38.318,70.463-85.586C245.463,38.318,235.105,0,175,0s-70.465,38.318-70.465,85.587
                C104.535,132.855,136.084,171.173,175,171.173z"/>
            <path d="M41.909,301.853C41.897,298.971,41.885,301.041,41.909,301.853L41.909,301.853z"/>
            <path d="M308.085,304.104C308.123,303.315,308.098,298.63,308.085,304.104L308.085,304.104z"/>
            <path d="M307.935,298.397c-1.305-82.342-12.059-105.805-94.352-120.657c0,0-11.584,14.761-38.584,14.761
                s-38.586-14.761-38.586-14.761c-81.395,14.69-92.803,37.805-94.303,117.982c-0.123,6.547-0.18,6.891-0.202,6.131
                c0.005,1.424,0.011,4.058,0.011,8.651c0,0,19.592,39.496,133.08,39.496c113.486,0,133.08-39.496,133.08-39.496
                c0-2.951,0.002-5.003,0.005-6.399C308.062,304.575,308.018,303.664,307.935,298.397z"/>
        </g>
    </symbol>

    <symbol id="arrow-left" viewBox="0 0 477.175 477.175">
        <g>
            <path d="M145.188,238.575l215.5-215.5c5.3-5.3,5.3-13.8,0-19.1s-13.8-5.3-19.1,0l-225.1,225.1c-5.3,5.3-5.3,13.8,0,19.1l225.1,225
		c2.6,2.6,6.1,4,9.5,4s6.9-1.3,9.5-4c5.3-5.3,5.3-13.8,0-19.1L145.188,238.575z"/>
        </g>

    </symbol>

    <symbol id="arrow-right" viewBox="0 0 477.175 477.175">
        <g>
            <path d="M360.731,229.075l-225.1-225.1c-5.3-5.3-13.8-5.3-19.1,0s-5.3,13.8,0,19.1l215.5,215.5l-215.5,215.5
		c-5.3,5.3-5.3,13.8,0,19.1c2.6,2.6,6.1,4,9.5,4c3.4,0,6.9-1.3,9.5-4l225.1-225.1C365.931,242.875,365.931,234.275,360.731,229.075z
		"/>
        </g>
    </symbol>


    <symbol id="arrow-bottom" viewBox="0 0 490.688 490.688">
        <path style="fill:#FFC107;" d="M472.328,120.529L245.213,347.665L18.098,120.529c-4.237-4.093-10.99-3.975-15.083,0.262
	c-3.992,4.134-3.992,10.687,0,14.82l234.667,234.667c4.165,4.164,10.917,4.164,15.083,0l234.667-234.667
	c4.237-4.093,4.354-10.845,0.262-15.083c-4.093-4.237-10.845-4.354-15.083-0.262c-0.089,0.086-0.176,0.173-0.262,0.262
	L472.328,120.529z"/>
        <path d="M245.213,373.415c-2.831,0.005-5.548-1.115-7.552-3.115L2.994,135.633c-4.093-4.237-3.975-10.99,0.262-15.083
	c4.134-3.992,10.687-3.992,14.82,0l227.136,227.115l227.115-227.136c4.093-4.237,10.845-4.354,15.083-0.262
	c4.237,4.093,4.354,10.845,0.262,15.083c-0.086,0.089-0.173,0.176-0.262,0.262L252.744,370.279
	C250.748,372.281,248.039,373.408,245.213,373.415z"/>
    </symbol>


    <symbol id="heart" viewBox="0 -28 512.001 512">
        <path d="m256 455.515625c-7.289062 0-14.316406-2.640625-19.792969-7.4375-20.683593-18.085937-40.625-35.082031-58.21875-50.074219l-.089843-.078125c-51.582032-43.957031-96.125-81.917969-127.117188-119.3125-34.644531-41.804687-50.78125-81.441406-50.78125-124.742187 0-42.070313 14.425781-80.882813 40.617188-109.292969 26.503906-28.746094 62.871093-44.578125 102.414062-44.578125 29.554688 0 56.621094 9.34375 80.445312 27.769531 12.023438 9.300781 22.921876 20.683594 32.523438 33.960938 9.605469-13.277344 20.5-24.660157 32.527344-33.960938 23.824218-18.425781 50.890625-27.769531 80.445312-27.769531 39.539063 0 75.910156 15.832031 102.414063 44.578125 26.191406 28.410156 40.613281 67.222656 40.613281 109.292969 0 43.300781-16.132812 82.9375-50.777344 124.738281-30.992187 37.398437-75.53125 75.355469-127.105468 119.308594-17.625 15.015625-37.597657 32.039062-58.328126 50.167969-5.472656 4.789062-12.503906 7.429687-19.789062 7.429687zm-112.96875-425.523437c-31.066406 0-59.605469 12.398437-80.367188 34.914062-21.070312 22.855469-32.675781 54.449219-32.675781 88.964844 0 36.417968 13.535157 68.988281 43.882813 105.605468 29.332031 35.394532 72.960937 72.574219 123.476562 115.625l.09375.078126c17.660156 15.050781 37.679688 32.113281 58.515625 50.332031 20.960938-18.253907 41.011719-35.34375 58.707031-50.417969 50.511719-43.050781 94.136719-80.222656 123.46875-115.617188 30.34375-36.617187 43.878907-69.1875 43.878907-105.605468 0-34.515625-11.605469-66.109375-32.675781-88.964844-20.757813-22.515625-49.300782-34.914062-80.363282-34.914062-22.757812 0-43.652344 7.234374-62.101562 21.5-16.441406 12.71875-27.894532 28.796874-34.609375 40.046874-3.453125 5.785157-9.53125 9.238282-16.261719 9.238282s-12.808594-3.453125-16.261719-9.238282c-6.710937-11.25-18.164062-27.328124-34.609375-40.046874-18.449218-14.265626-39.34375-21.5-62.097656-21.5zm0 0"/>
    </symbol>

    <symbol id="star" viewBox="0 0 512.002 512.002">
        <g>
            <g>
                <path d="M511.267,197.258c-1.764-5.431-6.457-9.389-12.107-10.209l-158.723-23.065L269.452,20.157
			c-2.526-5.12-7.741-8.361-13.45-8.361c-5.71,0-10.924,3.241-13.451,8.361l-70.988,143.827l-158.72,23.065
			c-5.649,0.82-10.344,4.778-12.108,10.208c-1.765,5.431-0.293,11.392,3.796,15.377l114.848,111.954L92.271,482.671
			c-0.966,5.628,1.348,11.314,5.967,14.671c2.613,1.898,5.708,2.864,8.818,2.864c2.388,0,4.784-0.569,6.978-1.723l141.967-74.638
			l141.961,74.637c5.055,2.657,11.178,2.215,15.797-1.141c4.619-3.356,6.934-9.044,5.969-14.672l-27.117-158.081l114.861-111.955
			C511.56,208.649,513.033,202.688,511.267,197.258z"/>
            </g>
        </g>
    </symbol>

    <symbol id="clock" viewBox="0 0 512 512">
        <g>
            <g>
                <path d="M256,0C114.845,0,0,114.839,0,256s114.845,256,256,256c141.161,0,256-114.839,256-256S397.155,0,256,0z M256,474.628
			C135.45,474.628,37.372,376.55,37.372,256S135.45,37.372,256,37.372s218.628,98.077,218.628,218.622
			C474.628,376.55,376.55,474.628,256,474.628z"/>
            </g>
        </g>
        <g>
            <g>
                <path d="M343.202,256h-80.973V143.883c0-10.321-8.365-18.686-18.686-18.686s-18.686,8.365-18.686,18.686v130.803
			c0,10.321,8.365,18.686,18.686,18.686h99.659c10.321,0,18.686-8.365,18.686-18.686S353.523,256,343.202,256z"/>
            </g>
        </g>
    </symbol>

    <symbol id="block-tab" viewBox="0 0 24 24">
        <path d="m1 11h9c.552 0 1-.448 1-1v-9c0-.552-.448-1-1-1h-9c-.552 0-1 .448-1 1v9c0 .552.448 1 1 1z"/>
        <path d="m23 0h-9c-.552 0-1 .448-1 1v9c0 .552.448 1 1 1h9c.552 0 1-.448 1-1v-9c0-.552-.448-1-1-1z"/>
        <path d="m1 24h9c.552 0 1-.448 1-1v-9c0-.552-.448-1-1-1h-9c-.552 0-1 .448-1 1v9c0 .552.448 1 1 1z"/>
        <path d="m23 13h-9c-.552 0-1 .448-1 1v9c0 .552.448 1 1 1h9c.552 0 1-.448 1-1v-9c0-.552-.448-1-1-1z"/>
    </symbol>

    <symbol id="list-tab" viewBox="0 0 511.626 511.626">
        <g>
            <g>
                <path d="M63.953,164.453H9.135c-2.474,0-4.615,0.9-6.423,2.709C0.903,168.972,0,171.114,0,173.589v54.817
			c0,2.473,0.903,4.619,2.712,6.424c1.809,1.803,3.949,2.712,6.423,2.712h54.818c2.474,0,4.615-0.905,6.423-2.712
			c1.809-1.809,2.712-3.951,2.712-6.424v-54.817c0-2.475-0.904-4.617-2.712-6.427C68.568,165.356,66.427,164.453,63.953,164.453z"/>
                <path d="M63.953,383.722H9.135c-2.474,0-4.615,0.896-6.423,2.707C0.903,388.238,0,390.378,0,392.854v54.82
			c0,2.471,0.903,4.609,2.712,6.42c1.809,1.813,3.949,2.714,6.423,2.714h54.818c2.474,0,4.615-0.903,6.423-2.714
			c1.809-1.807,2.712-3.949,2.712-6.42v-54.82c0-2.477-0.904-4.616-2.712-6.426C68.568,384.625,66.427,383.722,63.953,383.722z"/>
                <path d="M63.953,274.082H9.135c-2.474,0-4.615,0.91-6.423,2.714S0,280.749,0,283.22v54.815c0,2.478,0.903,4.62,2.712,6.427
			c1.809,1.808,3.949,2.707,6.423,2.707h54.818c2.474,0,4.615-0.896,6.423-2.707c1.809-1.807,2.712-3.949,2.712-6.427V283.22
			c0-2.471-0.904-4.613-2.712-6.424C68.568,274.989,66.427,274.082,63.953,274.082z"/>
                <path d="M63.953,54.817H9.135c-2.474,0-4.615,0.903-6.423,2.712S0,61.479,0,63.953v54.817c0,2.475,0.903,4.615,2.712,6.424
			s3.949,2.712,6.423,2.712h54.818c2.474,0,4.615-0.9,6.423-2.712c1.809-1.809,2.712-3.949,2.712-6.424V63.953
			c0-2.475-0.904-4.615-2.712-6.424C68.568,55.725,66.427,54.817,63.953,54.817z"/>
                <path d="M502.49,383.722H118.771c-2.474,0-4.615,0.896-6.423,2.707c-1.809,1.81-2.712,3.949-2.712,6.426v54.82
			c0,2.471,0.903,4.609,2.712,6.42c1.809,1.813,3.946,2.714,6.423,2.714H502.49c2.478,0,4.616-0.903,6.427-2.714
			c1.81-1.811,2.71-3.949,2.71-6.42v-54.82c0-2.477-0.903-4.616-2.71-6.426C507.106,384.625,504.967,383.722,502.49,383.722z"/>
                <path d="M502.49,274.082H118.771c-2.474,0-4.615,0.91-6.423,2.714s-2.712,3.953-2.712,6.424v54.815
			c0,2.478,0.903,4.62,2.712,6.427c1.809,1.808,3.946,2.707,6.423,2.707H502.49c2.478,0,4.616-0.896,6.427-2.707
			c1.81-1.807,2.71-3.949,2.71-6.427V283.22c0-2.471-0.903-4.613-2.71-6.424C507.106,274.992,504.967,274.082,502.49,274.082z"/>
                <path d="M508.917,57.529c-1.811-1.805-3.949-2.712-6.427-2.712H118.771c-2.474,0-4.615,0.903-6.423,2.712
			s-2.712,3.949-2.712,6.424v54.817c0,2.475,0.903,4.615,2.712,6.424s3.946,2.712,6.423,2.712H502.49c2.478,0,4.616-0.9,6.427-2.712
			c1.81-1.809,2.71-3.949,2.71-6.424V63.953C511.626,61.479,510.723,59.338,508.917,57.529z"/>
                <path d="M502.49,164.453H118.771c-2.474,0-4.615,0.9-6.423,2.709c-1.809,1.81-2.712,3.952-2.712,6.427v54.817
			c0,2.473,0.903,4.615,2.712,6.424c1.809,1.803,3.946,2.712,6.423,2.712H502.49c2.478,0,4.616-0.905,6.427-2.712
			c1.81-1.809,2.71-3.951,2.71-6.424v-54.817c0-2.475-0.903-4.617-2.71-6.427C507.106,165.356,504.967,164.453,502.49,164.453z"/>
            </g>
        </g>
    </symbol>

    <symbol id="btn-filter" viewBox="0 0 456.556 456.556">
        <g>
            <path d="M97.564,79.443H13.428C6.011,79.443,0,73.428,0,66.015s6.011-13.428,13.428-13.428h84.136
		c7.417,0,13.428,6.015,13.428,13.428S104.981,79.443,97.564,79.443z"/>
            <path d="M145.643,127.518c-33.916,0-61.507-27.591-61.507-61.504c0-33.92,27.591-61.511,61.507-61.511s61.507,27.591,61.507,61.511
		C207.15,99.928,179.559,127.518,145.643,127.518z M145.643,31.36c-19.107,0-34.651,15.547-34.651,34.654
		s15.544,34.647,34.651,34.647s34.651-15.54,34.651-34.647S164.75,31.36,145.643,31.36z"/>
            <path d="M443.128,79.443H242.433c-7.417,0-13.428-6.015-13.428-13.428s6.011-13.428,13.428-13.428h200.694
		c7.417,0,13.428,6.015,13.428,13.428S450.545,79.443,443.128,79.443z"/>
            <path d="M325.936,289.782c-33.917,0-61.507-27.591-61.507-61.504s27.591-61.504,61.507-61.504s61.507,27.591,61.507,61.504
		S359.853,289.782,325.936,289.782z M325.936,193.631c-19.107,0-34.651,15.54-34.651,34.647s15.544,34.647,34.651,34.647
		s34.651-15.54,34.651-34.647S345.043,193.631,325.936,193.631z"/>
            <path d="M229.149,241.706H13.428C6.011,241.706,0,235.691,0,228.278s6.011-13.428,13.428-13.428h215.721
		c7.417,0,13.428,6.015,13.428,13.428S236.566,241.706,229.149,241.706z"/>
            <path d="M443.128,241.706h-69.113c-7.417,0-13.428-6.015-13.428-13.428s6.011-13.428,13.428-13.428h69.113
		c7.417,0,13.428,6.015,13.428,13.428S450.545,241.706,443.128,241.706z"/>
            <path d="M130.62,452.052c-33.916,0-61.507-27.591-61.507-61.511c0-33.913,27.591-61.504,61.507-61.504s61.507,27.591,61.507,61.504
		C192.127,424.461,164.536,452.052,130.62,452.052z M130.62,355.894c-19.107,0-34.651,15.54-34.651,34.647
		s15.544,34.654,34.651,34.654s34.651-15.547,34.651-34.654S149.727,355.894,130.62,355.894z"/>
            <path d="M443.128,403.97H227.407c-7.417,0-13.428-6.015-13.428-13.428c0-7.413,6.011-13.428,13.428-13.428h215.721
		c7.417,0,13.428,6.015,13.428,13.428C456.556,397.955,450.545,403.97,443.128,403.97z"/>
            <path d="M82.541,403.97H13.428C6.011,403.97,0,397.955,0,390.541c0-7.413,6.011-13.428,13.428-13.428h69.113
		c7.417,0,13.428,6.015,13.428,13.428C95.969,397.955,89.958,403.97,82.541,403.97z"/>
        </g>
    </symbol>

    <symbol id="calendar" viewBox="0 0 512 512">
        <g>
            <path d="m391.017 251.454h35.714c8.074 0 14.643-6.569 14.643-14.643v-35.714c0-8.074-6.569-14.643-14.643-14.643h-35.714c-8.074 0-14.643 6.569-14.643 14.643v35.714c0 8.074 6.569 14.643 14.643 14.643zm.357-50h35v35h-35zm-.357 145h35.714c8.074 0 14.643-6.569 14.643-14.643v-35.714c0-8.074-6.569-14.643-14.643-14.643h-35.714c-8.074 0-14.643 6.569-14.643 14.643v35.714c0 8.074 6.569 14.643 14.643 14.643zm.357-50h35v35h-35zm-102.273-45h35.714c8.074 0 14.643-6.569 14.643-14.643v-35.714c0-8.074-6.569-14.643-14.643-14.643h-35.714c-8.074 0-14.643 6.569-14.643 14.643v35.714c0 8.074 6.569 14.643 14.643 14.643zm.357-50h35v35h-35zm-168.475 170.546h-35.714c-8.074 0-14.643 6.569-14.643 14.643v35.714c0 8.074 6.569 14.643 14.643 14.643h35.714c8.074 0 14.643-6.569 14.643-14.643v-35.714c0-8.074-6.569-14.643-14.643-14.643zm-.357 50h-35v-35h35zm.357-235.546h-35.714c-8.074 0-14.643 6.569-14.643 14.643v35.714c0 8.074 6.569 14.643 14.643 14.643h35.714c8.074 0 14.643-6.569 14.643-14.643v-35.714c0-8.075-6.569-14.643-14.643-14.643zm-.357 50h-35v-35h35zm168.475 107.773h35.714c8.074 0 14.643-6.569 14.643-14.643v-35.714c0-8.074-6.569-14.643-14.643-14.643h-35.714c-8.074 0-14.643 6.569-14.643 14.643v35.714c0 8.074 6.569 14.643 14.643 14.643zm.357-50h35v35h-35zm159.365-259.953h-32.066v-11.467c0-12.576-10.231-22.807-22.807-22.807h-3.444c-12.575 0-22.806 10.231-22.806 22.807v11.467h-223.4v-11.467c0-12.576-10.231-22.807-22.807-22.807h-3.444c-12.576 0-22.807 10.231-22.807 22.807v11.467h-32.065c-20.705 0-37.55 16.845-37.55 37.55v402.676c0 20.678 16.822 37.5 37.5 37.5h385.748c20.678 0 37.5-16.822 37.5-37.5v-402.676c-.001-20.705-16.846-37.55-37.552-37.55zm-66.123-11.467c0-4.305 3.502-7.807 7.807-7.807h3.444c4.305 0 7.807 3.502 7.807 7.807v11.467h-19.058zm-272.457 0c0-4.305 3.502-7.807 7.807-7.807h3.444c4.305 0 7.807 3.502 7.807 7.807v11.467h-19.057v-11.467zm361.131 451.693c0 12.407-10.093 22.5-22.5 22.5h-385.748c-12.407 0-22.5-10.093-22.5-22.5v-.047c6.284 4.735 14.095 7.547 22.551 7.547h304.083c10.03 0 19.46-3.906 26.552-10.999l77.562-77.562zm-85.215-17.059c.588-2.427.908-4.958.908-7.563v-50.064c0-9.44 7.681-17.121 17.122-17.121h50.063c2.605 0 5.136-.32 7.563-.908zm85.215-315.987h-319.574c-4.142 0-7.5 3.358-7.5 7.5s3.358 7.5 7.5 7.5h319.574v194.118c0 9.441-7.681 17.122-17.122 17.122h-50.063c-17.712 0-32.122 14.41-32.122 32.121v50.064c0 9.441-7.681 17.122-17.121 17.122h-291.769c-12.434 0-22.55-10.116-22.55-22.551v-287.996h81.173c4.142 0 7.5-3.358 7.5-7.5s-3.358-7.5-7.5-7.5h-81.174v-69.63c0-12.434 10.116-22.55 22.55-22.55h32.066v22.052c0 12.576 10.231 22.807 22.807 22.807 4.142 0 7.5-3.358 7.5-7.5s-3.358-7.5-7.5-7.5c-4.305 0-7.807-3.502-7.807-7.807v-22.052h257.458v22.052c0 12.576 10.231 22.807 22.807 22.807 4.142 0 7.5-3.358 7.5-7.5s-3.358-7.5-7.5-7.5c-4.305 0-7.807-3.502-7.807-7.807v-22.052h66.124c12.434 0 22.55 10.116 22.55 22.55zm-350.391 137.773h-35.714c-8.074 0-14.643 6.569-14.643 14.643v35.714c0 8.074 6.569 14.643 14.643 14.643h35.714c8.074 0 14.643-6.569 14.643-14.643v-35.714c0-8.075-6.569-14.643-14.643-14.643zm-.357 50h-35v-35h35zm66.559-77.773h35.714c8.074 0 14.643-6.569 14.643-14.643v-35.714c0-8.074-6.569-14.643-14.643-14.643h-35.714c-8.074 0-14.643 6.569-14.643 14.643v35.714c0 8.074 6.569 14.643 14.643 14.643zm.357-50h35v35h-35zm101.907 220.546c-.186-3.977-3.469-7.143-7.492-7.143-4.142 0-7.5 3.358-7.5 7.5 0 8.074 6.569 14.643 14.643 14.643h35.714c8.074 0 14.643-6.569 14.643-14.643v-35.714c0-8.074-6.569-14.643-14.643-14.643h-35.714c-8.074 0-14.643 6.569-14.643 14.643v10.3c0 4.142 3.358 7.5 7.5 7.5s7.5-3.358 7.5-7.5v-9.943h35v35zm-102.264-77.773h35.714c8.074 0 14.643-6.569 14.643-14.643v-35.714c0-8.074-6.569-14.643-14.643-14.643h-35.714c-8.074 0-14.643 6.569-14.643 14.643v35.714c0 8.074 6.569 14.643 14.643 14.643zm.357-50h35v35h-35zm-.357 142.773h35.714c8.074 0 14.643-6.569 14.643-14.643v-35.714c0-8.074-6.569-14.643-14.643-14.643h-35.714c-8.074 0-14.643 6.569-14.643 14.643v35.714c0 8.074 6.569 14.643 14.643 14.643zm.357-50h35v35h-35z"/>
        </g>
    </symbol>

    <symbol id="user" viewBox="0 0 480 480">
        <g>
            <g>
                <path d="M240,0C107.664,0,0,107.664,0,240c0,57.96,20.656,111.184,54.992,152.704c0.088,0.12,0.096,0.272,0.192,0.384
			c24.792,29.896,55.928,52.816,90.624,67.624c0.4,0.168,0.792,0.352,1.192,0.52c2.808,1.184,5.648,2.28,8.496,3.352
			c1.12,0.424,2.24,0.856,3.376,1.264c2.456,0.88,4.928,1.712,7.416,2.512c1.592,0.512,3.184,1.016,4.792,1.496
			c2.2,0.656,4.408,1.288,6.632,1.888c1.952,0.528,3.92,1.016,5.888,1.488c1.992,0.48,3.992,0.96,6,1.384
			c2.24,0.48,4.504,0.904,6.776,1.32c1.824,0.336,3.64,0.688,5.48,0.984c2.52,0.408,5.056,0.728,7.6,1.056
			c1.64,0.208,3.272,0.448,4.92,0.624c2.88,0.304,5.784,0.52,8.696,0.72c1.352,0.096,2.696,0.24,4.056,0.312
			c4.248,0.24,8.544,0.368,12.872,0.368s8.624-0.128,12.888-0.352c1.36-0.072,2.704-0.216,4.056-0.312
			c2.912-0.208,5.816-0.416,8.696-0.72c1.648-0.176,3.28-0.416,4.92-0.624c2.544-0.328,5.08-0.648,7.6-1.056
			c1.832-0.296,3.656-0.648,5.48-0.984c2.264-0.416,4.528-0.84,6.776-1.32c2.008-0.432,4-0.904,6-1.384
			c1.968-0.48,3.936-0.968,5.888-1.488c2.224-0.592,4.432-1.232,6.632-1.888c1.608-0.48,3.2-0.984,4.792-1.496
			c2.488-0.8,4.96-1.632,7.416-2.512c1.128-0.408,2.248-0.84,3.376-1.264c2.856-1.072,5.688-2.176,8.496-3.352
			c0.4-0.168,0.792-0.352,1.192-0.52c34.688-14.808,65.832-37.728,90.624-67.624c0.096-0.112,0.104-0.272,0.192-0.384
			C459.344,351.184,480,297.96,480,240C480,107.664,372.336,0,240,0z M337.256,441.76c-0.12,0.056-0.232,0.12-0.352,0.176
			c-2.856,1.376-5.76,2.672-8.688,3.936c-0.664,0.28-1.32,0.568-1.984,0.848c-2.56,1.072-5.152,2.088-7.76,3.064
			c-1.088,0.408-2.176,0.808-3.272,1.192c-2.312,0.824-4.632,1.616-6.976,2.368c-1.456,0.464-2.92,0.904-4.384,1.336
			c-2.08,0.624-4.168,1.224-6.28,1.784c-1.776,0.472-3.568,0.904-5.36,1.328c-1.88,0.448-3.752,0.904-5.648,1.304
			c-2.072,0.44-4.16,0.816-6.24,1.192c-1.688,0.312-3.368,0.64-5.072,0.912c-2.344,0.368-4.712,0.664-7.072,0.96
			c-1.496,0.192-2.984,0.416-4.496,0.576c-2.696,0.288-5.416,0.472-8.128,0.664c-1.208,0.08-2.408,0.216-3.632,0.28
			c-3.96,0.208-7.928,0.32-11.912,0.32s-7.952-0.112-11.904-0.32c-1.216-0.064-2.416-0.192-3.632-0.28
			c-2.72-0.184-5.432-0.376-8.128-0.664c-1.512-0.16-3-0.384-4.496-0.576c-2.36-0.296-4.728-0.592-7.072-0.96
			c-1.704-0.272-3.384-0.6-5.072-0.912c-2.088-0.376-4.176-0.76-6.24-1.192c-1.896-0.4-3.776-0.856-5.648-1.304
			c-1.792-0.432-3.584-0.856-5.36-1.328c-2.104-0.56-4.2-1.168-6.28-1.784c-1.464-0.432-2.928-0.872-4.384-1.336
			c-2.344-0.752-4.672-1.544-6.976-2.368c-1.096-0.392-2.184-0.792-3.272-1.192c-2.608-0.976-5.2-1.992-7.76-3.064
			c-0.664-0.272-1.312-0.56-1.976-0.84c-2.928-1.256-5.832-2.56-8.696-3.936c-0.12-0.056-0.232-0.112-0.352-0.176
			c-27.912-13.504-52.568-32.672-72.576-55.952c15.464-56.944,59.24-102.848,115.56-121.112c1.112,0.68,2.272,1.288,3.416,1.928
			c0.672,0.376,1.336,0.776,2.016,1.136c2.384,1.264,4.8,2.448,7.272,3.512c1.896,0.832,3.856,1.536,5.808,2.256
			c0.384,0.136,0.768,0.288,1.152,0.424c10.848,3.84,22.456,6.04,34.6,6.04s23.752-2.2,34.592-6.04
			c0.384-0.136,0.768-0.288,1.152-0.424c1.952-0.72,3.912-1.424,5.808-2.256c2.472-1.064,4.888-2.248,7.272-3.512
			c0.68-0.368,1.344-0.76,2.016-1.136c1.144-0.64,2.312-1.248,3.432-1.936c56.32,18.272,100.088,64.176,115.56,121.112
			C389.824,409.08,365.168,428.248,337.256,441.76z M152,176c0-48.52,39.48-88,88-88s88,39.48,88,88
			c0,30.864-16.008,58.024-40.128,73.736c-3.152,2.048-6.432,3.88-9.8,5.48c-0.4,0.192-0.792,0.392-1.192,0.576
			c-23.168,10.536-50.592,10.536-73.76,0c-0.4-0.184-0.8-0.384-1.192-0.576c-3.376-1.6-6.648-3.432-9.8-5.48
			C168.008,234.024,152,206.864,152,176z M421.832,370.584c-18.136-53.552-59.512-96.832-112.376-117.392
			C330.6,234.144,344,206.64,344,176c0-57.344-46.656-104-104-104s-104,46.656-104,104c0,30.64,13.4,58.144,34.552,77.192
			c-52.864,20.568-94.24,63.84-112.376,117.392C31.672,333.792,16,288.704,16,240C16,116.488,116.488,16,240,16s224,100.488,224,224
			C464,288.704,448.328,333.792,421.832,370.584z"/>
            </g>
        </g>
    </symbol>

    <symbol id="dislike" viewBox="0 0 512 512">
        <g>
            <g>
                <g>
                    <path d="M256,0C114.844,0,0,114.844,0,256s114.844,256,256,256s256-114.844,256-256S397.156,0,256,0z M256,490.667
				C126.604,490.667,21.333,385.396,21.333,256S126.604,21.333,256,21.333S490.667,126.604,490.667,256S385.396,490.667,256,490.667
				z"/>
                    <circle cx="170.667" cy="192" r="21.333"/>
                    <circle cx="341.333" cy="192" r="21.333"/>
                    <path d="M256,320h-0.031c-89.615,0-124.396,45.021-125.833,46.938c-3.521,4.688-2.573,11.302,2.094,14.854
				c4.667,3.542,11.354,2.635,14.927-2c1.208-1.573,30.604-38.458,108.813-38.458H256c78.229,0.01,107.635,36.896,108.802,38.406
				c2.094,2.792,5.292,4.26,8.542,4.26c2.229,0,4.469-0.698,6.396-2.135c4.708-3.531,5.667-10.219,2.125-14.938
				C380.427,365.021,345.635,320.01,256,320z"/>
                </g>
            </g>
        </g>

    </symbol>

    <symbol id="like" viewBox="0 0 512 512">
        <g>
            <g>
                <g>
                    <path d="M256,0C114.844,0,0,114.844,0,256s114.844,256,256,256s256-114.844,256-256S397.156,0,256,0z M256,490.667
				C126.604,490.667,21.333,385.396,21.333,256S126.604,21.333,256,21.333S490.667,126.604,490.667,256S385.396,490.667,256,490.667
				z"/>
                    <path d="M393.385,299.115c-5.781-1.385-11.49,2.177-12.844,7.906c-13.75,57.885-64.958,98.313-124.542,98.313
				c-59.656,0-110.885-40.49-124.573-98.448c-1.365-5.75-7.146-9.24-12.833-7.938c-5.74,1.354-9.292,7.104-7.938,12.833
				c15.979,67.646,75.75,114.885,145.344,114.885c69.51,0,129.26-47.167,145.292-114.708
				C402.656,306.219,399.115,300.469,393.385,299.115z"/>
                    <circle cx="170.667" cy="192" r="21.333"/>
                    <circle cx="341.333" cy="192" r="21.333"/>
                </g>
            </g>
        </g>

    </symbol>

    <svg id="smile" viewBox="0 0 512 512">
        <g>
            <g>
                <g>
                    <path d="M256,0C114.844,0,0,114.844,0,256s114.844,256,256,256s256-114.844,256-256S397.156,0,256,0z M256,490.667
				C126.604,490.667,21.333,385.396,21.333,256S126.604,21.333,256,21.333S490.667,126.604,490.667,256S385.396,490.667,256,490.667
				z"/>
                    <circle cx="170.667" cy="192" r="21.333"/>
                    <circle cx="341.333" cy="192" r="21.333"/>
                    <path d="M373.333,341.333H138.667c-5.896,0-10.667,4.771-10.667,10.667c0,5.896,4.771,10.667,10.667,10.667h234.667
				c5.896,0,10.667-4.771,10.667-10.667C384,346.104,379.229,341.333,373.333,341.333z"/>
                </g>
            </g>
        </g>

    </svg>

</svg>